<svg width="128pt" height="128pt" version="1.1" viewBox="0 0 128 128" xmlns="http://www.w3.org/2000/svg">
 <path d="m91.371 31.418-27.371-27.371-27.371 27.371 16.293 16.293-5.2148 5.2148-16.289-16.297-27.371 27.371 27.371 27.371 16.293-16.293 5.2148 5.2148-16.297 16.289 27.371 27.371 27.371-27.371-16.293-16.289 5.2148-5.2148 16.293 16.293 27.367-27.371-27.371-27.371-16.289 16.293-5.2148-5.2148zm-52.133 0 24.762-24.766 24.762 24.762-14.988 14.988-1.9531-1.9531 13.031-13.031-20.852-20.855-20.855 20.855 13.031 13.031-1.9531 1.9531zm45.617 39.098 1.9531-1.9531 9.7734 9.7734 14.336-14.336-14.336-14.336-9.7734 9.7734-1.9531-1.9531 11.73-11.73 18.246 18.246-18.25 18.246zm-41.711-13.031-1.9531 1.9531-9.7734-9.7734-14.336 14.336 14.336 14.336 9.7734-9.7734 1.9531 1.9531-11.73 11.73-18.246-18.246 18.246-18.246zm18.902-9.7773 1.9531-1.9531 1.9531 1.9531-1.9531 1.957zm3.2578-3.2578 1.9531-1.9531 1.9531 1.9531-1.9531 1.9531zm-3.2578-3.2578 1.9531-1.9531 1.9531 1.9531-1.9531 1.9531zm9.7734-9.7734-7.8203-7.8203-7.8203 7.8203 6.5156 6.5156-1.9531 1.9531-8.4727-8.4727 11.73-11.727 11.73 11.73-8.4727 8.4727-1.9531-1.9531zm-7.8203 5.2109-5.2148-5.2148 5.2148-5.2109 5.2148 5.2148zm4.5625 4.5625 9.7734-9.7734-14.336-14.336-14.336 14.336 9.7734 9.7734-1.9531 1.9531-11.73-11.73 18.246-18.246 18.246 18.246-11.73 11.73zm-7.8203 1.3047 1.9531 1.9531-1.9531 1.9531-1.9531-1.9531zm-1.3047 5.2109-1.9531 1.9531-1.9531-1.9531 1.9531-1.9531zm1.3047 1.3047 1.9531 1.9531-1.9531 1.9531-1.9531-1.9531zm5.2109 5.2148-1.9531 1.9531-1.9531-1.9531 1.9531-1.957zm22.16 13.031 1.9531-1.9531 6.5156 6.5156 7.8203-7.8203-7.8203-7.8203-6.5156 6.5156-1.9531-1.9531 8.4727-8.4727 11.727 11.73-11.73 11.73zm3.2578-3.2578 5.2148-5.2148 5.2109 5.2148-5.2148 5.2148zm-2.6094 0-1.9531 1.9531-1.9531-1.9531 1.9531-1.9531zm-26.715 9.7734 1.9531-1.9531 1.9531 1.9531-1.9531 1.957zm-22.16-13.031-1.9531 1.9531-6.5156-6.5156-7.8203 7.8203 7.8203 7.8203 6.5156-6.5156 1.9531 1.9531-8.4727 8.4727-11.727-11.73 11.73-11.73zm-3.2578 3.2578-5.2148 5.2148-5.2109-5.2148 5.2148-5.2148zm2.6094 0 1.9531-1.9531 1.9531 1.9531-1.9531 1.9531zm29.977 0-5.2148 5.2148-5.2148-5.2148 5.2148-5.2148zm-11.73-1.3047-1.9531-1.9531 5.2148-5.2148 1.9531 1.9531zm-1.3047 1.3047-1.9531 1.9531-1.957-1.9531 1.9531-1.9531zm1.3047 1.3047 5.2148 5.2148-1.9531 1.9531-5.2148-5.2148zm7.8203 5.2109 5.2148-5.2148 1.9531 1.9531-5.2148 5.2148zm6.5156-6.5156 1.9531-1.9531 1.957 1.9531-1.9531 1.9531zm-1.3047-1.3047-5.2148-5.2148 1.9531-1.9531 5.2148 5.2148zm-11.078-8.4688-5.2148 5.2148-1.9531-1.9531 5.2148-5.2148zm-6.5156 6.5156-1.9531 1.9531-1.9531-1.9531 1.9531-1.9531zm-3.2578 3.2578-1.9531 1.9531-1.957-1.9531 1.9531-1.9531zm-1.957-4.5625-1.9531-1.9531 1.9531-1.9531 1.9531 1.9531zm-1.3008 1.3047-1.9531 1.9531-1.9531-1.9531 1.9531-1.9531zm-3.9102 6.5156 1.9531-1.9531 1.9531 1.9531-1.9531 1.9531zm5.2109 1.3047 1.9531 1.9531-1.9531 1.9531-1.9531-1.9531zm1.3047-1.3047 1.9531-1.9531 1.9531 1.9531-1.9531 1.9531zm5.2148 1.3047 5.2148 5.2148-1.9531 1.9531-5.2148-5.2148zm6.5156 6.5156 1.9531 1.9531-1.9531 1.9531-1.9531-1.9531zm5.2109 5.2148-1.9531 1.9531-1.9531-1.9531 1.9531-1.957zm-6.5156 0-1.9531 1.9531-1.9531-1.9531 1.9531-1.9531zm1.3047 1.3008 1.9531 1.9531-1.9531 1.9531-1.9531-1.9531zm5.2109 5.2148-1.9531 1.9531-1.9531-1.9531 1.9531-1.9531zm-9.7734 9.7734 7.8203 7.8203 7.8203-7.8203-6.5156-6.5156 1.9531-1.9531 8.4727 8.4727-11.73 11.727-11.73-11.73 8.4727-8.4727 1.9531 1.9531zm7.8203-5.2109 5.2148 5.2148-5.2148 5.2109-5.2148-5.2148zm-4.5625-4.5625-9.7734 9.7734 14.336 14.336 14.336-14.336-9.7734-9.7734 1.9531-1.9531 11.73 11.73-18.246 18.246-18.246-18.25 11.73-11.73zm7.8203-1.3047-1.9531-1.9531 1.9531-1.9531 1.9531 1.9531zm1.3047-5.2109 1.9531-1.9531 1.9531 1.9531-1.9531 1.9531zm-1.3047-1.3047-1.9531-1.9531 1.9531-1.9531 1.9531 1.9531zm1.3047-5.2148 5.2148-5.2148 1.9531 1.9531-5.2148 5.2148zm6.5156-6.5156 1.9531-1.9531 1.9531 1.9531-1.9531 1.9531zm3.2578-3.2578 1.9531-1.9531 1.957 1.9531-1.9531 1.9531zm1.957 4.5625 1.9531 1.9531-1.9531 1.9531-1.9531-1.9531zm1.3008-1.3047 1.9531-1.9531 1.9531 1.9531-1.9531 1.9531zm3.9102-6.5156-1.9531 1.9531-1.9531-1.9531 1.9531-1.9531zm-5.2109-1.3047-1.9531-1.9531 1.9531-1.9531 1.9531 1.9531zm-1.3047 1.3047-1.9531 1.9531-1.9531-1.9531 1.9531-1.9531zm-5.2148-1.3047-5.2148-5.2148 1.9531-1.9531 5.2148 5.2148zm-6.5156-6.5156-1.9531-1.9531 1.9531-1.9531 1.9531 1.9531zm1.3047-5.2148 1.9531-1.9531 1.9531 1.9531-1.9531 1.9531zm-14.336 1.3047 1.9531 1.9531-5.2148 5.2148-1.9531-1.9531zm-22.809 39.75-24.766-24.762 24.762-24.762 14.988 14.988-1.9531 1.9531-13.031-13.035-20.855 20.855 20.855 20.855 13.031-13.031 1.9531 1.9531zm17.594-14.988 1.9531-1.9531 5.2148 5.2148-1.9531 1.9531zm39.75 22.809-24.762 24.766-24.762-24.766 14.988-14.988 1.9531 1.9531-13.035 13.035 20.855 20.855 20.855-20.855-13.035-13.031 1.9531-1.9531zm-14.988-17.594-1.9531-1.9531 5.2148-5.2148 1.9531 1.9531zm22.809-39.75 24.766 24.762-24.766 24.762-14.988-14.988 1.9531-1.9531 13.031 13.031 20.859-20.852-20.855-20.855-13.031 13.035-1.9531-1.9531zm-17.594 14.988-1.9531 1.9531-5.2148-5.2148 1.9531-1.9531z" fill="currentColor"/>
</svg>
