<svg width="128pt" height="128pt" version="1.1" viewBox="0 0 128 128" xmlns="http://www.w3.org/2000/svg">
 <path d="m113.54 54.273c2.5586-6.5273 2.3047-13.055-0.76953-18.434-3.7109-6.2734-11.008-10.113-19.586-10.113-2.5586 0-5.1211 0.38281-7.6797 1.0234-3.1953-11.133-11.645-19.07-21.5-19.07s-18.305 7.9375-21.504 19.07c-2.5586-0.64062-5.1211-1.0234-7.6797-1.0234-8.5742 0-15.871 3.7109-19.586 10.113-3.0703 5.375-3.3281 11.902-0.76953 18.434 1.4062 3.5859 3.7109 6.9102 6.5273 9.8555-8.0625 8.3203-10.754 19.586-5.7617 28.16 3.7109 6.2734 11.008 10.113 19.586 10.113 2.5586 0 5.1211-0.38281 7.6797-1.0234 3.2031 11.004 11.652 18.941 21.508 18.941s18.305-7.9375 21.504-19.07c2.5586 0.64062 5.1211 1.0234 7.6797 1.0234 8.5742 0 15.871-3.8398 19.586-10.113 4.9922-8.5742 2.3047-19.84-5.7617-28.16 2.8164-2.9453 5.1211-6.2734 6.5273-9.7266zm-20.223-25.984c7.6797 0 14.078 3.3281 17.281 8.832 2.6875 4.6094 2.9453 10.367 0.51172 16.129-1.2812 3.3281-3.3281 6.2734-6.0156 8.9609-1.793-1.5352-3.7109-3.0703-5.8867-4.2227-5.2461-3.0703-11.008-4.6094-16.77-4.7344 2.6875-4.7344 4.3516-10.496 4.3516-16.895 0-2.5586-0.25781-4.8633-0.76953-7.2969 2.4336-0.39062 4.8633-0.77344 7.2969-0.77344zm-9.7266 69.758c-2.0469-0.64062-3.9688-1.5352-6.0156-2.6875-5.6328-3.1992-9.8555-7.8086-12.289-12.801 1.793-4.2227 2.5586-8.5742 1.9219-12.672 3.3281 2.5586 7.5508 4.2227 12.289 4.7344 2.9453 4.6094 4.7344 10.496 4.7344 16.895 0.125 2.3086-0.12891 4.4844-0.64062 6.5312zm-39.938-6.5273c0-6.3984 1.793-12.289 4.7344-16.895 4.7344-0.51172 8.9609-2.0469 12.16-4.7344-0.64062 4.0977 0.12891 8.5742 1.9219 12.672-2.4336 4.8633-6.6562 9.4727-12.289 12.801-1.9219 1.1523-3.9688 2.0469-5.8867 2.6875-0.38672-2.0508-0.64062-4.2266-0.64062-6.5312zm2.0469-19.328c-5.2461 0-10.625-1.5352-15.617-4.3516-1.9219-1.1523-3.7109-2.4336-5.375-3.8398 1.5352-1.4062 3.3281-2.6875 5.2461-3.8398 4.8633-2.8164 10.367-4.3516 15.617-4.3516h1.5352c2.6875 3.7109 6.1445 6.5273 9.9844 8.0625-3.9688 1.5352-7.4258 4.4805-10.113 8.1914-0.37891 0.12891-0.89453 0.12891-1.2773 0.12891zm-1.4062-42.238c2.0469 0.64062 4.0977 1.6641 6.0156 2.6875 5.375 3.0703 9.7266 7.5508 12.289 12.543-1.9219 4.2227-2.6875 8.7031-2.0469 12.93-3.1992-2.5586-7.4258-4.2227-12.031-4.7344-3.0703-4.6094-4.8633-10.496-4.8633-17.023-0.003906-2.1797 0.25-4.3555 0.63672-6.4023zm40.062 6.5273c0 6.5273-1.793 12.414-4.8633 17.023-4.6094 0.51172-8.7031 2.1758-12.031 4.7344 0.51172-3.7109 0-7.8086-1.5352-11.777-0.12891-0.38281-0.38281-0.76953-0.51172-1.1523 2.4336-4.8633 6.6562-9.3438 12.289-12.543 1.9219-1.1523 3.9688-2.0469 6.0156-2.6875 0.38281 1.9219 0.63672 4.0977 0.63672 6.4023zm-23.039 25.984c-3.9688-0.64062-7.5508-2.8164-10.496-6.0156 4.3516 0.89453 7.9375 2.9414 10.496 6.0156zm-10.625 9.2148c3.0703-3.457 6.7852-5.7617 11.008-6.3984-2.6875 3.3281-6.5273 5.5039-11.008 6.3984zm26.496-15.23c-2.9453 3.1992-6.5273 5.375-10.496 6.0156 2.5586-3.0742 6.1445-5.1211 10.496-6.0156zm-13.184 4.7344c-1.5352-3.9688-1.4062-8.3203 0-12.672 1.5352 4.4805 1.5352 8.832 0 12.672zm0 6.0156c1.4062 3.7109 1.2812 7.9375 0 12.031-1.2812-4.0938-1.4062-8.3203 0-12.031zm2.3047-1.793c4.2227 0.64062 7.9375 2.9453 11.008 6.3984-4.4805-1.0195-8.3203-3.1953-11.008-6.3984zm14.719 6.7852c-2.6875-3.8398-6.2734-6.6562-10.113-8.1914 3.8398-1.5352 7.2969-4.3516 9.9844-8.0625h1.5352c5.2461 0 10.625 1.5352 15.617 4.3516 1.9219 1.1523 3.7109 2.4336 5.2461 3.8398-1.6641 1.4062-3.457 2.6875-5.375 3.8398-4.9922 2.8164-10.367 4.3516-15.617 4.3516-0.37891-0.12891-0.89453-0.12891-1.2773-0.12891zm-17.023-61.953c8.7031 0 16.258 7.168 19.07 17.281-2.3047 0.76953-4.4805 1.793-6.6562 2.9453-5.375 3.0703-9.6016 7.4258-12.414 12.031-2.8164-4.8633-7.0391-8.9609-12.414-12.031-2.1758-1.2812-4.3516-2.3047-6.6562-2.9453 2.8125-10.113 10.367-17.281 19.07-17.281zm-46.594 26.883c3.1992-5.5039 9.6016-8.832 17.281-8.832 2.4336 0 4.7344 0.38281 7.168 0.89453-0.51172 2.3047-0.76953 4.7344-0.76953 7.2969 0 6.2734 1.6641 12.031 4.3516 16.77-5.6328 0-11.52 1.6641-16.77 4.7344-2.1758 1.2812-4.0977 2.6875-5.8867 4.2227-2.5586-2.6875-4.6094-5.7617-6.0156-8.9609-2.3008-5.7578-2.0469-11.52 0.64062-16.125zm17.281 62.59c-7.6797 0-14.078-3.3281-17.281-8.832-4.3516-7.5508-1.9219-17.664 5.375-25.09 1.793 1.5352 3.7109 3.0703 5.8867 4.3516 5.2461 3.0703 11.008 4.6094 16.641 4.7344-2.6875 4.7344-4.2227 10.496-4.2227 16.77 0 2.5586 0.25781 4.9922 0.76953 7.2969-2.3047 0.51562-4.7344 0.76953-7.168 0.76953zm29.312 18.051c-8.7031 0-16.129-7.168-19.07-17.281 2.3047-0.76953 4.4805-1.793 6.6562-2.9453 5.5039-3.1992 9.7266-7.4258 12.414-12.16 2.6875 4.7344 6.9102 9.0898 12.414 12.16 2.1758 1.2812 4.3516 2.1758 6.6562 2.9453-2.9414 10.113-10.367 17.281-19.07 17.281zm46.594-26.883c-3.1992 5.5039-9.7266 8.832-17.281 8.832-2.3047 0-4.7344-0.38281-7.168-0.89453 0.51172-2.3047 0.76953-4.7344 0.76953-7.2969 0-6.2734-1.5352-12.031-4.2227-16.77 5.6328 0 11.391-1.6641 16.641-4.7344 2.1758-1.2812 4.0977-2.6875 5.8867-4.3516 7.1641 7.5508 9.7266 17.664 5.375 25.215z" fill="currentColor"/>
</svg>