<svg width="24pt" height="24pt" version="1.1" viewBox="0 0 128 128" xmlns="http://www.w3.org/2000/svg">
 <path d="m67.352 19.148c-0.73828-1.1328-2-1.8164-3.3516-1.8164s-2.6133 0.68359-3.3516 1.8164l-15.031 23.066-25.469 7.8906c-1.2344 0.38281-2.207 1.3398-2.6133 2.5664s-0.19141 2.5742 0.57031 3.6172l16.262 22.223-0.73438 28.051c-0.035156 1.3281 0.59375 2.5898 1.6758 3.3594 1.082 0.77344 2.4766 0.95703 3.7227 0.49219l24.969-9.3359 24.969 9.3359c1.2461 0.46484 2.6406 0.28125 3.7227-0.49219 1.082-0.76953 1.7109-2.0312 1.6758-3.3594l-0.73438-28.051 16.262-22.223c0.76172-1.043 0.97656-2.3906 0.57031-3.6172s-1.3789-2.1836-2.6133-2.5664l-25.469-7.8906z" fill="currentColor" fill-rule="evenodd"/>
</svg>