<svg width="128pt" height="128pt" version="1.1" viewBox="0 0 128 128" xmlns="http://www.w3.org/2000/svg">
 <path d="m111.55 28.207-47.449-24.148-56.031 32 8.2266 63.422 47.938 24.461 55.707-31.742zm-7.6602 21.926-26.184 53.254-31.59-48.91zm-58.035 1.7969 18.707-44.141 38.641 39.828zm59.867 0.28125 11.27 38.504-36.594 13.004zm1.625-3.5664 2.6992-12.215 5.0898 38.832zm-2.0586-2.5547-34.879-35.949 38.496 19.59zm-62.07 5.5352-31.023-14.977 49.281-28.148zm32.082 52.754-55.734-6.7695 24.363-41.801zm0.078125 2.5898-11.512 13.914-39.375-20.094zm3.2422 0.097656 26.73-9.5-35.699 20.344zm-67.598-68.141 31.047 14.988-23.805 40.844z" fill="currentColor"/>
</svg>
