<svg width="128pt" height="128pt" version="1.1" viewBox="0 0 128 128" xmlns="http://www.w3.org/2000/svg">
 <path d="m121.53 63.613c-0.53906-7.5938-3.9961-14.492-9.7305-19.434-5.1094-4.3984-11.492-6.7305-18.184-6.7266 0.16797-1.6328 0.21484-3.2656 0.097657-4.8789-1.1055-15.496-14.602-27.203-30.098-26.102-7.5938 0.53906-14.492 3.9961-19.434 9.7305-4.3984 5.1094-6.7344 11.5-6.7305 18.188-1.6328-0.16797-3.2617-0.21484-4.8789-0.10156-15.492 1.1016-27.203 14.605-26.098 30.102 0.53906 7.5938 3.9961 14.492 9.7305 19.434 5.1094 4.3984 11.504 6.7266 18.184 6.7266-0.16797 1.6328-0.21484 3.2656-0.097657 4.8789 1.0547 14.816 13.449 26.172 28.078 26.172 0.66797 0 1.3438-0.023437 2.0195-0.070312 7.5938-0.53906 14.492-3.9961 19.434-9.7305 4.3984-5.1055 6.7305-11.488 6.7305-18.168 0.97266 0.10156 1.9453 0.15234 2.9141 0.15234 0.65625 0 1.3125-0.023437 1.9648-0.070312 7.5039-0.53516 14.355-3.9609 19.285-9.6445 4.9258-5.6875 7.3477-12.953 6.8125-20.457zm-73.645-44.223c4.082-4.7422 9.793-7.5977 16.078-8.043 12.773-0.91797 23.965 8.7656 24.879 21.574 0.11719 1.6523 0.050781 3.332-0.19141 5.0078-10.797 2.2539-17.91 12.309-24.234 21.277-0.33203 0.47266-0.65625 0.92188-0.98828 1.3867-0.45703-0.32422-0.89453-0.63672-1.3555-0.96484-8.8555-6.2422-18.895-13.32-19.684-23.418-0.48438-6.1719 1.4688-12.145 5.4961-16.82zm-28.492 60.727c-4.7422-4.082-7.5977-9.7891-8.043-16.078-0.91016-12.805 8.7656-23.969 21.57-24.879 1.6562-0.11719 3.3359-0.050781 5.0156 0.19141 2.3164 10.848 12.773 18.242 21.316 24.266 0.45703 0.32422 0.89062 0.63281 1.3398 0.95312-0.32422 0.45703-0.63672 0.89063-0.96484 1.3555-6.2422 8.8555-13.32 18.895-23.418 19.684-6.168 0.48438-12.141-1.4648-16.816-5.4922zm60.727 28.492c-4.082 4.7422-9.793 7.5977-16.078 8.043-12.816 0.92188-23.965-8.7656-24.879-21.57-0.11719-1.6562-0.050781-3.3359 0.19141-5.0195 10.852-2.3164 18.242-12.773 24.27-21.316 0.32422-0.45703 0.63281-0.89062 0.95312-1.3398 0.46875 0.33203 0.92188 0.66016 1.4023 0.99609 8.8359 6.2305 18.852 13.293 19.637 23.387 0.48047 6.1719-1.4688 12.145-5.4961 16.82zm30.902-27.742c-4.0742 4.6992-9.7344 7.5312-15.938 7.9727-1.6523 0.11719-3.332 0.050781-5.0078-0.19141-2.2539-10.797-12.309-17.91-21.277-24.234-0.47266-0.33203-0.92188-0.65625-1.3867-0.98437 0.33203-0.46875 0.66016-0.92578 1-1.4023 6.2305-8.8359 13.289-18.848 23.387-19.637 6.1719-0.48438 12.145 1.4727 16.816 5.4961 4.7422 4.082 7.5977 9.793 8.043 16.078 0.4375 6.1992-1.5625 12.203-5.6367 16.902z" fill="currentColor"/>
</svg>
