<svg width="128pt" height="128pt" version="1.1" viewBox="0 0 128 128" xmlns="http://www.w3.org/2000/svg">
 <g fill="currentColor">
  <path d="m64 60.039c-2.1836 0-3.9609 1.7773-3.9609 3.9609s1.7773 3.9609 3.9609 3.9609 3.9609-1.7773 3.9609-3.9609-1.7773-3.9609-3.9609-3.9609zm0 7.1289c-1.7461 0-3.168-1.418-3.168-3.168 0-1.7461 1.4219-3.168 3.168-3.168s3.168 1.4219 3.168 3.168-1.4219 3.168-3.168 3.168z"/>
  <path d="m64 55.914 0.52734-1.0156c0.22656-0.43359 5.5156-10.73 5.5156-20.594 0-3.5469-0.65625-5.9023-1.5312-7.4883-0.003907-0.003906-0.003907-0.007812-0.003907-0.011718-3.3203-6.293-3.918-9.7812-3.9219-9.8164l-0.57422-3.5117-0.59766 3.5117c-0.007812 0.035157-0.57031 3.207-3.6016 8.957-0.32812 0.55469-0.53906 0.98828-0.60547 1.125l0.015625 0.007813c-0.72266 1.6016-1.2266 3.9023-1.2695 7.2188-0.11719 9.6406 5.2852 20.156 5.5156 20.602zm-3.5938-28.559c0.070312-0.13281 0.14062-0.26172 0.21094-0.39062 0.81641-1.4258 1.9492-2.1797 3.3828-2.1797 1.6797 0 4.8555 1.9922 4.8555 9.5234 0 7.7539-3.5 16.039-4.8594 18.957-1.375-2.9453-4.9492-11.359-4.8555-18.949 0.039063-3.0078 0.47656-5.3477 1.2656-6.9609z"/>
  <path d="m64.227 51.031 0.074219-24.883c0-0.16406-0.13281-0.29688-0.29688-0.29688-0.16406 0-0.29688 0.13281-0.29688 0.29688l-0.074219 24.883c0 0.16406 0.13281 0.29688 0.29688 0.29688 0.16406-0.003906 0.29687-0.13281 0.29687-0.29688z"/>
  <path d="m47.277 38.73c-2.125-2.125-4.1797-3.5039-6.125-4.1289v-0.003906c-0.066406-0.023437-0.15625-0.046875-0.26562-0.082031-6.8008-2.1016-9.6914-4.1484-9.7188-4.168l-2.8906-2.0781 2.0625 2.9062c0.019531 0.027344 1.8633 2.6719 3.7891 8.8789 0.16016 0.625 0.31641 1.082 0.36719 1.2266l0.019531-0.007812c0.62109 1.6445 1.8906 3.625 4.207 6 6.7344 6.9023 17.992 10.516 18.465 10.664l1.0898 0.34375-0.34375-1.0898c-0.14453-0.46484-3.6836-11.484-10.656-18.461zm-7.6992 7.7148c-2.1016-2.1523-3.4492-4.1133-4.0312-5.8125-0.042969-0.14453-0.085937-0.28516-0.12891-0.42578-0.42969-1.582-0.16016-2.918 0.85156-3.9336 0.42578-0.42578 1.332-0.87891 2.5781-0.87891 0.16797 0 0.33984 0.007813 0.51953 0.027344 2.1172 0.20703 4.5625 1.6445 7.0703 4.1523 5.4844 5.4844 8.8672 13.82 9.9688 16.84-3.0547-1.1172-11.531-4.5391-16.828-9.9688z"/>
  <path d="m37.023 37.02c-0.11719 0.11328-0.11719 0.30469 0 0.41797l17.543 17.652c0.058594 0.058594 0.13281 0.085937 0.21094 0.085937 0.074218 0 0.15234-0.03125 0.21094-0.085937 0.11719-0.11328 0.11719-0.30469 0-0.41797l-17.543-17.652c-0.11719-0.11719-0.30469-0.11719-0.42187 0z"/>
  <path d="m34.309 57.957c-3.5312 0-5.8789 0.64844-7.4688 1.5195-0.011719 0.007813-0.019532 0.007813-0.03125 0.015626-6.293 3.3242-9.7852 3.918-9.8203 3.9258l-3.5117 0.57422 3.5078 0.59766c0.035156 0.007812 3.207 0.57031 8.9609 3.6016 0.55469 0.32812 0.98828 0.53906 1.125 0.60547l0.007813-0.019531c1.6016 0.72266 3.9023 1.2266 7.2188 1.2695 0.10547 0 0.21094 0.003906 0.31641 0.003906 9.5547 0 19.848-5.293 20.285-5.5195l1.0156-0.53125-1.0156-0.52734c-0.42969-0.22266-10.727-5.5156-20.59-5.5156zm0.007812 10.902c-3.0156-0.039063-5.3633-0.47266-6.9766-1.2656-0.11719-0.0625-0.23047-0.125-0.34375-0.1875-1.4453-0.81641-2.2109-1.957-2.2109-3.4023 0-1.6797 1.9922-4.8555 9.5234-4.8555 7.7539 0 16.039 3.5 18.957 4.8555-2.9492 1.3711-11.352 4.9414-18.949 4.8555z"/>
  <path d="m26.145 63.699c-0.16406 0-0.29688 0.13281-0.29688 0.29688 0 0.16406 0.13281 0.29688 0.29688 0.29688l24.883 0.074219c0.16406 0 0.29688-0.13281 0.29688-0.29688 0-0.16406-0.13281-0.29687-0.29688-0.29687z"/>
  <path d="m38.73 80.723c-2.4922 2.4922-3.6914 4.6055-4.2031 6.3398-0.003906 0.015625-0.007813 0.027344-0.015625 0.042969-2.1016 6.8008-4.1484 9.6914-4.168 9.7188l-2.0781 2.8945 2.9062-2.0625c0.027344-0.019531 2.6719-1.8633 8.8789-3.7891 0.625-0.16016 1.082-0.31641 1.2266-0.36719l-0.003906-0.015625c1.6445-0.62109 3.6289-1.8945 6-4.2109 6.9023-6.7344 10.516-17.988 10.664-18.465l0.34375-1.0898-1.0898 0.34375c-0.46484 0.14844-11.484 3.6875-18.461 10.66zm7.7148 7.6992c-2.1562 2.1055-4.125 3.4531-5.8281 4.0352-0.12891 0.039063-0.25391 0.074219-0.37891 0.11328-1.6016 0.44531-2.9492 0.17969-3.9688-0.84375-1.1875-1.1875-2.0273-4.8398 3.3008-10.168 5.4844-5.4844 13.82-8.8672 16.84-9.9688-1.1094 3.0586-4.5312 11.531-9.9648 16.832z"/>
  <path d="m37.02 90.973c0.058594 0.058594 0.13281 0.089844 0.21094 0.089844 0.074219 0 0.15234-0.03125 0.21094-0.085938l17.648-17.543c0.11719-0.11719 0.11719-0.30469 0-0.41797-0.11328-0.11719-0.30469-0.11719-0.41797-0.003906l-17.652 17.543c-0.11328 0.11719-0.11719 0.30078 0 0.41797z"/>
  <path d="m64 72.086-0.52734 1.0156c-0.22656 0.43359-5.5156 10.73-5.5156 20.594 0 3.5352 0.65234 5.8867 1.5234 7.4727 0.003906 0.007812 0.007812 0.011719 0.011719 0.023437 3.3242 6.293 3.918 9.7852 3.9258 9.8203l0.57422 3.5117 0.59766-3.5117c0.007812-0.035157 0.57031-3.207 3.6016-8.957 0.32812-0.55469 0.53906-0.98828 0.60547-1.125l-0.019531-0.007813c0.72266-1.6016 1.2266-3.9023 1.2695-7.2188 0.11719-9.6406-5.2852-20.156-5.5156-20.598zm3.5898 28.566c-0.066406 0.12109-0.12891 0.24219-0.19531 0.35938-0.81641 1.4375-1.957 2.1992-3.3984 2.1992-1.6797 0-4.8555-1.9922-4.8555-9.5234 0-7.7539 3.5039-16.039 4.8555-18.957 1.375 2.9453 4.9492 11.355 4.8555 18.949-0.03125 3.0195-0.46875 5.3633-1.2617 6.9727z"/>
  <path d="m63.777 76.969-0.074219 24.883c0 0.16406 0.13281 0.29688 0.29688 0.29688s0.29688-0.13281 0.29688-0.29688l0.074219-24.883c0-0.16406-0.13281-0.29688-0.29688-0.29688-0.16406 0.003906-0.29688 0.13281-0.29688 0.29688z"/>
  <path d="m80.723 89.266c2.125 2.125 4.1797 3.5039 6.1211 4.1328v0.003906c0.066406 0.019531 0.15625 0.046875 0.26172 0.082031 6.8008 2.1016 9.6914 4.1484 9.7188 4.168l2.8906 2.0781-2.0586-2.9062c-0.019531-0.027344-1.8633-2.6719-3.7891-8.8789-0.16016-0.625-0.31641-1.082-0.36719-1.2266l-0.019531 0.007812c-0.62109-1.6445-1.8906-3.6289-4.207-6-6.7344-6.9023-17.988-10.516-18.465-10.664l-1.0898-0.34375 0.34375 1.0898c0.14844 0.46484 3.6875 11.488 10.66 18.457zm7.6992-7.7109c2.1016 2.1562 3.4531 4.1211 4.0352 5.8203 0.039063 0.13281 0.078125 0.26562 0.11719 0.39453 0.44141 1.5938 0.17188 2.9375-0.84766 3.957-1.1875 1.1836-4.8398 2.0273-10.168-3.3008-5.4844-5.4844-8.8672-13.816-9.9688-16.836 3.0586 1.1133 11.535 4.5312 16.832 9.9648z"/>
  <path d="m90.766 91.066c0.074219 0 0.15234-0.03125 0.20703-0.085937 0.11719-0.11719 0.11719-0.30469 0.003906-0.41797l-17.543-17.652c-0.11719-0.11719-0.30469-0.11719-0.41797-0.003906-0.11719 0.11719-0.11719 0.30469-0.003906 0.41797l17.543 17.648c0.054687 0.066406 0.13281 0.09375 0.21094 0.09375z"/>
  <path d="m121.57 64.133c0.007812-0.039062 0.023437-0.070312 0.027343-0.10937 0-0.007813-0.003906-0.015626-0.003906-0.023438s0.003906-0.015625 0.003906-0.023438c0-0.039062-0.019531-0.074218-0.027343-0.11328-0.007813-0.027343-0.007813-0.058593-0.019531-0.085937-0.027344-0.066406-0.0625-0.12109-0.10938-0.17578l-0.003906-0.003906c-0.097656-0.10938-0.23047-0.17578-0.38672-0.18359-0.007813 0-0.015626-0.007812-0.027344-0.007812h-0.015625c-0.007813 0-0.015625-0.003906-0.027344-0.003906-2.9375 0.097656-10.383-2.6406-14.484-5.3516-3.2461-2.1484-8.8906-4.1641-15.004-3.3828-4.082 0.52344-7.6797 1.4062-10.727 2.3828 2.8477-1.4609 6.0156-3.3789 9.2695-5.8984 4.8711-3.7656 7.4375-9.1875 8.2188-13.004 0.98047-4.8164 4.3008-12.027 6.4531-14.023 0.007812-0.007812 0.007812-0.015625 0.015624-0.023438 0.003907-0.003906 0.007813-0.007812 0.011719-0.011718 0.011719-0.011719 0.011719-0.027344 0.023438-0.039063 0.039062-0.046875 0.074219-0.097656 0.09375-0.15234 0.007812-0.019532 0.007812-0.042969 0.015625-0.0625 0.015625-0.050782 0.027344-0.10547 0.023437-0.15625 0-0.027344-0.007812-0.050782-0.011719-0.078126-0.007812-0.046874-0.015624-0.09375-0.035156-0.14062-0.011718-0.03125-0.035156-0.058594-0.054687-0.085938-0.019531-0.03125-0.03125-0.0625-0.054688-0.089844-0.007812-0.007812-0.015625-0.007812-0.019531-0.015625-0.007812-0.007812-0.007812-0.015625-0.015625-0.019531-0.027344-0.023438-0.058594-0.035156-0.089844-0.054688-0.03125-0.019531-0.054687-0.039062-0.089843-0.054687-0.042969-0.019531-0.089844-0.023437-0.13672-0.03125-0.027344-0.003906-0.050781-0.011719-0.082031-0.011719-0.054688 0-0.10547 0.011719-0.15625 0.023438-0.019532 0.003906-0.042969 0.007812-0.0625 0.015625-0.054688 0.019531-0.10156 0.054687-0.14844 0.089843-0.015625 0.011719-0.03125 0.015626-0.042969 0.027344l-0.015625 0.015625c-0.003906 0.003907-0.011718 0.007813-0.019531 0.011719-2 2.1562-9.207 5.4727-14.027 6.457-3.8164 0.77734-9.2344 3.3438-13.004 8.2148-2.5156 3.2539-4.4336 6.418-5.8945 9.2617 0.98047-3.043 1.8633-6.6406 2.3828-10.719 0.78125-6.1094-1.2383-11.758-3.3828-15.004-2.7109-4.1016-5.4648-11.543-5.3516-14.48 0-0.007813-0.003906-0.015625-0.003906-0.023438v-0.023437c0-0.019532-0.011719-0.035156-0.011719-0.050782-0.007812-0.054687-0.015625-0.11328-0.039062-0.16406-0.011719-0.03125-0.03125-0.050781-0.050782-0.078125-0.023437-0.035156-0.042968-0.070313-0.070312-0.10156-0.03125-0.03125-0.070312-0.054687-0.10938-0.078124-0.027344-0.015626-0.046875-0.035157-0.074219-0.046876-0.042968-0.019531-0.085937-0.023437-0.13281-0.03125-0.011719 0-0.035156-0.011718-0.0625-0.015624-0.007813 0-0.015625 0.003906-0.023438 0.003906-0.011718 0-0.019531-0.003906-0.027344-0.003906-0.03125 0-0.054687 0.015624-0.082031 0.019531-0.039062 0.007812-0.082031 0.011719-0.12109 0.03125-0.042969 0.019531-0.082032 0.046875-0.11719 0.074219-0.019531 0.015624-0.042969 0.027343-0.0625 0.046874-0.042969 0.039063-0.074219 0.085938-0.10156 0.13672-0.007813 0.015625-0.019532 0.027344-0.027344 0.042969-0.023438 0.054688-0.035156 0.11328-0.042969 0.17578 0 0.015625-0.011719 0.03125-0.011719 0.042969v0.023438c0 0.007812-0.003906 0.015624-0.003906 0.023437 0.11328 2.9375-2.6406 10.379-5.3516 14.48-2.1484 3.2461-4.1641 8.8906-3.3828 15.004 0.52344 4.082 1.4062 7.6836 2.3867 10.73-1.4609-2.8477-3.3828-6.0195-5.8984-9.2734-3.7695-4.8711-9.1875-7.4414-13.004-8.2148-4.8164-0.98047-12.027-4.3008-14.023-6.457-0.007812-0.007812-0.015624-0.007812-0.023437-0.015625-0.003906-0.003906-0.007813-0.007812-0.011719-0.011719-0.011718-0.011718-0.027344-0.011718-0.035156-0.023437-0.046875-0.039063-0.097656-0.074219-0.15625-0.09375-0.019531-0.007813-0.039062-0.007813-0.054688-0.011719-0.054687-0.015625-0.10937-0.027344-0.16406-0.027344-0.023438 0-0.046875 0.007813-0.070312 0.011719-0.050782 0.007813-0.097657 0.015625-0.14453 0.035157-0.03125 0.011718-0.058594 0.035156-0.085937 0.050781-0.03125 0.019531-0.0625 0.03125-0.089844 0.054687-0.007813 0.007813-0.007813 0.015625-0.015625 0.019532-0.007812 0.007812-0.015625 0.007812-0.019531 0.015624-0.023438 0.027344-0.035157 0.058594-0.054688 0.089844s-0.039062 0.054688-0.054687 0.089844c-0.019532 0.046875-0.027344 0.09375-0.035156 0.14453-0.003907 0.023438-0.011719 0.046875-0.011719 0.074219 0 0.054688 0.011719 0.11328 0.027343 0.16797 0.003907 0.019531 0.007813 0.035156 0.011719 0.054687 0.023438 0.058594 0.054688 0.10938 0.097657 0.15625 0.007812 0.011719 0.011718 0.023438 0.023437 0.035156 0.003906 0.003907 0.007813 0.007813 0.011719 0.011719 0.007812 0.007813 0.007812 0.015625 0.015625 0.023438 2.1562 2 5.4727 9.207 6.457 14.023 0.77734 3.8164 3.3438 9.2344 8.2148 13.004 3.2539 2.5156 6.4219 4.4375 9.2695 5.8984-3.0469-0.98047-6.6445-1.8633-10.723-2.3828-6.1094-0.77734-11.758 1.2383-15.004 3.3828-4.1016 2.7109-11.539 5.4492-14.48 5.3516-0.007813 0-0.015625 0.003907-0.027344 0.003907h-0.019531c-0.011719 0-0.023438 0.007812-0.035157 0.007812-0.15234 0.011719-0.28125 0.074219-0.375 0.17969-0.003906 0.003906-0.007812 0.011719-0.011718 0.015625-0.042969 0.050781-0.078125 0.10156-0.10156 0.16406-0.011719 0.027344-0.015625 0.058594-0.019531 0.089844-0.019531 0.027344-0.035156 0.0625-0.039062 0.10156 0 0.007813 0.003906 0.015626 0.003906 0.023438s-0.003906 0.015625-0.003906 0.023438c0 0.039062 0.015624 0.070312 0.027343 0.10547 0.007813 0.03125 0.011719 0.0625 0.023438 0.09375 0.023437 0.054688 0.054687 0.10156 0.089843 0.14844 0.007813 0.011718 0.015626 0.023437 0.027344 0.035156 0.046875 0.046875 0.10156 0.085938 0.16016 0.11719 0.007813 0.003906 0.011719 0.011718 0.019532 0.011718 0.054687 0.027344 0.11719 0.039063 0.18359 0.042969 0.015624 0 0.027343 0.007813 0.039062 0.011719h0.027344c0.007812 0 0.011718 0.003906 0.019531 0.003906 2.9219-0.10156 10.383 2.6406 14.48 5.3555 2.7578 1.8242 7.25 3.5547 12.289 3.5547 0.89062 0 1.7969-0.054687 2.7148-0.17188 4.082-0.52344 7.6797-1.4062 10.727-2.3867-2.8477 1.4609-6.0156 3.3789-9.2695 5.8984-4.8711 3.7695-7.4414 9.1875-8.2148 13.004-0.98047 4.8164-4.3008 12.027-6.457 14.027-0.007812 0.003906-0.007812 0.011719-0.011718 0.019531-0.003907 0.003907-0.011719 0.011719-0.015626 0.015625-0.011718 0.011719-0.015624 0.03125-0.027343 0.042969-0.035157 0.046875-0.070313 0.09375-0.089844 0.14844-0.007813 0.019532-0.007813 0.039063-0.015625 0.058594-0.015625 0.054688-0.027344 0.10547-0.027344 0.16406 0 0.023437 0.007813 0.046875 0.011719 0.070312 0.007813 0.050781 0.015625 0.10156 0.035156 0.14844 0.011719 0.03125 0.035157 0.054687 0.050781 0.085937 0.019532 0.03125 0.03125 0.0625 0.054688 0.089844 0.007812 0.007812 0.015625 0.007812 0.019531 0.015625 0.007813 0.007813 0.007813 0.015625 0.015625 0.019531 0.035156 0.035156 0.078125 0.050782 0.12109 0.074219 0.019531 0.011719 0.035156 0.027344 0.054688 0.035156 0.074218 0.03125 0.14844 0.046875 0.22656 0.046875 0.050781 0 0.10156-0.019531 0.14844-0.03125 0.019531-0.003906 0.042968-0.003906 0.0625-0.011718 0.046874-0.019532 0.089843-0.050782 0.13281-0.082032 0.019531-0.011718 0.039062-0.019531 0.054688-0.035156 0.003906-0.003906 0.007812-0.011719 0.015624-0.015625 0.007813-0.007813 0.015626-0.007813 0.023438-0.015625 2-2.1562 9.207-5.4727 14.027-6.4531 3.8164-0.77734 9.2344-3.3438 13.004-8.2188 2.5156-3.2539 4.4375-6.4219 5.8984-9.2695-0.98047 3.0469-1.8633 6.6445-2.3828 10.727-0.78125 6.1094 1.2383 11.758 3.3828 15.004 2.7109 4.1016 5.4648 11.547 5.3516 14.484 0 0.007812 0.003906 0.015624 0.003906 0.023437v0.019531c0 0.019532 0.007813 0.03125 0.011719 0.046875 0.007813 0.058594 0.015625 0.11328 0.039063 0.16797 0.007812 0.019531 0.019531 0.03125 0.03125 0.046875 0.027343 0.046875 0.054687 0.097656 0.097656 0.13281 0.015625 0.015624 0.039062 0.027343 0.054687 0.039062 0.039063 0.03125 0.078125 0.0625 0.125 0.082031 0.03125 0.011719 0.0625 0.015625 0.097657 0.023438 0.039062 0.007812 0.070312 0.027343 0.11328 0.027343h0.023437 0.023438c0.039062 0 0.074218-0.019531 0.11328-0.027343 0.035156-0.007813 0.066406-0.011719 0.097656-0.023438 0.046875-0.019531 0.085938-0.050781 0.125-0.082031 0.019531-0.015625 0.039063-0.023438 0.054688-0.039062 0.039062-0.039063 0.066406-0.085938 0.097656-0.13281 0.007813-0.015625 0.023437-0.03125 0.03125-0.046875 0.023437-0.050781 0.03125-0.10938 0.039063-0.16797 0.003906-0.015625 0.011718-0.03125 0.011718-0.046875v-0.019531c0-0.007813 0.003906-0.015625 0.003906-0.023437-0.11328-2.9375 2.6406-10.383 5.3555-14.484 2.1484-3.2461 4.1641-8.8906 3.3828-15.004-0.52344-4.082-1.4062-7.6797-2.3867-10.727 1.4609 2.8477 3.3789 6.0156 5.8984 9.2695 3.7656 4.8711 9.1875 7.4375 13.004 8.2188 4.8164 0.98047 12.027 4.3008 14.023 6.4531 0.003906 0.003906 0.011719 0.007812 0.019532 0.011719 0.003906 0.003906 0.011718 0.011719 0.015624 0.019531 0.019532 0.019531 0.046876 0.027344 0.070313 0.042969 0.039063 0.027343 0.074219 0.054687 0.11719 0.074219 0.027344 0.011718 0.050782 0.011718 0.078126 0.015624 0.046874 0.011719 0.089843 0.027344 0.13672 0.027344 0.078125 0 0.15625-0.019531 0.22656-0.046875 0.019531-0.007812 0.03125-0.023437 0.046875-0.03125 0.042968-0.023437 0.089844-0.042969 0.125-0.078125 0.007812-0.007812 0.007812-0.015625 0.015625-0.019531 0.007812-0.007813 0.015625-0.007813 0.019531-0.015625 0.027344-0.027344 0.039062-0.0625 0.054688-0.09375 0.019531-0.027344 0.039062-0.054688 0.050781-0.085938 0.019531-0.046874 0.027343-0.09375 0.035156-0.14062 0.003906-0.027344 0.011719-0.050782 0.011719-0.078126 0-0.050781-0.011719-0.10156-0.023438-0.14844-0.007812-0.023437-0.007812-0.046875-0.015625-0.074219-0.019531-0.050781-0.050781-0.09375-0.085937-0.14062-0.011719-0.015625-0.015625-0.035156-0.03125-0.046875-0.003906-0.003906-0.011719-0.011718-0.015625-0.015625-0.003907-0.003906-0.007813-0.011719-0.011719-0.019531-2.1562-2-5.4727-9.207-6.4531-14.023-0.77734-3.8164-3.3438-9.2344-8.2188-13.004-3.2539-2.5195-6.4258-4.4375-9.2695-5.8984 3.0469 0.98047 6.6445 1.8633 10.727 2.3867 0.91797 0.11719 1.8242 0.17187 2.7148 0.17187 5.0352 0 9.5273-1.7305 12.289-3.5547 4.0977-2.7109 11.547-5.4453 14.48-5.3555 0.007813 0 0.015625-0.003906 0.023438-0.003906h0.023437c0.007813 0 0.015625-0.003906 0.023438-0.003906 0.15625-0.007813 0.28906-0.074219 0.38672-0.18359 0.003907-0.003906 0.003907-0.007812 0.007813-0.007812 0.042969-0.050782 0.082031-0.10938 0.10938-0.17188 0-0.03125 0.003906-0.0625 0.011719-0.09375zm-57.574 4.7344c-2.6836 0-4.8672-2.1836-4.8672-4.8672s2.1836-4.8672 4.8672-4.8672 4.8672 2.1836 4.8672 4.8672-2.1836 4.8672-4.8672 4.8672zm5.4062-7.543c0.34766-0.070313 1.4102-0.30859 3.0078-0.80859-1.4883 0.77734-2.4062 1.3633-2.6992 1.5547-0.089844-0.25781-0.19141-0.50781-0.30859-0.74609zm8.3789-22.641c3.5703-4.6172 8.6953-7.0469 12.301-7.7812 3.5859-0.73047 8.3086-2.6523 11.551-4.5391-1.8867 3.2422-3.8086 7.9609-4.5391 11.551-0.73438 3.6055-3.1641 8.7305-7.7773 12.301-10.379 8.0273-20.164 9.9492-20.262 9.9688-0.10938 0.019531-0.19531 0.074218-0.27344 0.14062-0.32031-0.41406-0.69141-0.78516-1.1055-1.1055 0.066406-0.078125 0.12109-0.16797 0.14062-0.27344 0.015626-0.097656 1.9375-9.8828 9.9648-20.262zm-11.105 19.91c-0.24219-0.12109-0.49219-0.21875-0.74609-0.30859 0.19141-0.29297 0.77734-1.2109 1.5547-2.6953-0.50391 1.5977-0.73828 2.6562-0.80859 3.0039zm-7.6367-36.441c2.0195-3.0547 4-7.75 4.957-11.375 0.95703 3.625 2.9375 8.3242 4.957 11.375 2.0312 3.0703 3.9375 8.4102 3.1953 14.199-1.6641 13.016-7.2227 21.293-7.2812 21.375-0.0625 0.089844-0.085938 0.19141-0.09375 0.29297-0.25391-0.03125-0.50781-0.078125-0.77734-0.078125-0.26562 0-0.52344 0.042969-0.78125 0.078125-0.007812-0.10156-0.03125-0.20312-0.09375-0.29688-0.054688-0.082031-5.6172-8.3398-7.2812-21.375-0.73438-5.7852 1.1719-11.125 3.1992-14.195zm3.0312 36.133c-0.25781 0.089844-0.50781 0.1875-0.75 0.30859-0.070313-0.34766-0.30859-1.4141-0.80859-3.0156 0.77734 1.4922 1.3633 2.4141 1.5586 2.707zm-31.168-20.367c-0.73047-3.5859-2.6523-8.3086-4.5391-11.551 3.2422 1.8867 7.9609 3.8086 11.551 4.5391 3.6055 0.73438 8.7305 3.1641 12.301 7.7812 8.0273 10.379 9.9492 20.164 9.9688 20.262 0.019531 0.10938 0.074219 0.19531 0.14062 0.27344-0.41406 0.32031-0.78516 0.69141-1.1055 1.1055-0.078125-0.066406-0.16406-0.12109-0.27344-0.14062-0.097657-0.019531-9.8828-1.9414-20.262-9.9688-4.6172-3.5703-7.0469-8.6953-7.7812-12.301zm27.688 23.402c-0.12109 0.24219-0.21875 0.49219-0.30859 0.75-0.29297-0.19531-1.2148-0.77734-2.6992-1.5547 1.5977 0.5 2.6602 0.73438 3.0078 0.80469zm-22.242 10.836c-5.7852 0.73828-11.129-1.168-14.199-3.1953-3.0547-2.0195-7.7305-4.0078-11.359-4.9648 3.625-0.95703 8.3125-2.9336 11.359-4.9531 3.0703-2.0312 8.4062-3.9336 14.199-3.1953 13.016 1.6641 21.293 7.2227 21.375 7.2812 0.089844 0.0625 0.19141 0.085938 0.29297 0.09375-0.035156 0.25781-0.078125 0.51562-0.078125 0.78125s0.042969 0.52344 0.078125 0.78125c-0.10156 0.007813-0.20312 0.03125-0.29297 0.089844-0.082031 0.054688-8.3594 5.6172-21.375 7.2812zm21.938-6.2305c0.085938 0.25781 0.1875 0.50781 0.30859 0.75-0.34766 0.070313-1.4141 0.30859-3.0117 0.80859 1.4844-0.77734 2.4062-1.3633 2.7031-1.5586zm-8.0742 23.391c-3.5703 4.6133-8.6953 7.0469-12.301 7.7773-3.5859 0.73047-8.3086 2.6523-11.551 4.5391 1.8867-3.2422 3.8086-7.9609 4.5391-11.551 0.73438-3.6055 3.1641-8.7305 7.7812-12.301 10.379-8.0273 20.164-9.9492 20.262-9.9648 0.10938-0.019531 0.19531-0.074218 0.27344-0.14062 0.32031 0.41406 0.69141 0.78516 1.1055 1.1055-0.066407 0.078125-0.12109 0.16406-0.14453 0.27344-0.015626 0.097656-1.9375 9.8828-9.9648 20.262zm11.109-19.91c0.24219 0.12109 0.49219 0.21875 0.75 0.30859-0.19531 0.29297-0.77734 1.2109-1.5547 2.6992 0.49609-1.5977 0.73047-2.6602 0.80469-3.0078zm7.6328 36.441c-2.0195 3.0547-4 7.75-4.957 11.375-0.95703-3.625-2.9375-8.3242-4.957-11.375-2.0312-3.0703-3.9375-8.4102-3.1953-14.199 1.6641-13.016 7.2227-21.293 7.2812-21.375 0.0625-0.089844 0.085938-0.19141 0.09375-0.29688 0.25781 0.035157 0.51562 0.078126 0.78125 0.078126s0.52344-0.042969 0.78125-0.078126c0.007813 0.10156 0.03125 0.20313 0.09375 0.29688 0.054688 0.082031 5.6172 8.3594 7.2812 21.375 0.73438 5.7891-1.1719 11.129-3.2031 14.199zm-3.0312-36.137c0.25781-0.085938 0.50781-0.1875 0.75-0.30859 0.070313 0.34766 0.30859 1.4102 0.80859 3.0117-0.77734-1.4883-1.3633-2.4062-1.5586-2.7031zm31.168 20.371c0.73047 3.5859 2.6484 8.3086 4.5391 11.547-3.2422-1.8867-7.9609-3.8086-11.547-4.5391-3.6055-0.73438-8.7305-3.1641-12.301-7.7773-8.0273-10.379-9.9492-20.164-9.9648-20.262-0.019531-0.10938-0.074218-0.19531-0.14453-0.27344 0.41406-0.32031 0.78516-0.69141 1.1055-1.1055 0.078125 0.066406 0.16406 0.12109 0.27344 0.14453 0.097656 0.019532 9.8828 1.9414 20.262 9.9648 4.6133 3.5703 7.043 8.6953 7.7773 12.301zm-27.691-23.402c0.12109-0.24219 0.21875-0.49219 0.30859-0.75 0.29297 0.19531 1.2148 0.78125 2.7031 1.5586-1.5977-0.50391-2.6602-0.73828-3.0117-0.80859zm36.445 2.2773c-3.0703 2.0312-8.4102 3.9375-14.199 3.1953-13.016-1.6641-21.293-7.2266-21.375-7.2812-0.09375-0.0625-0.19141-0.085938-0.29688-0.089844 0.035157-0.25781 0.078126-0.51562 0.078126-0.78125s-0.042969-0.52344-0.078126-0.78125c0.10156-0.007812 0.20313-0.03125 0.29688-0.09375 0.082031-0.054688 8.3594-5.6172 21.375-7.2812 5.7891-0.73438 11.129 1.168 14.199 3.1953 3.0508 2.0195 7.7422 3.9961 11.367 4.9531-3.6289 0.96094-8.3164 2.9453-11.367 4.9648z"/>
  <path d="m111.01 63.414c-0.035157-0.007812-3.207-0.57031-8.957-3.5977-0.55469-0.32812-0.99219-0.54297-1.1289-0.60547l-0.007812 0.019531c-1.6016-0.72266-3.9023-1.2266-7.2188-1.2695h-0.3125c-9.5547 0-19.848 5.293-20.285 5.5195l-1.0156 0.51953 1.0156 0.52734c0.43359 0.22656 10.73 5.5156 20.594 5.5156 3.5391 0 5.8906-0.65234 7.4766-1.5234 0.007813-0.003906 0.011719-0.003906 0.015625-0.007812 6.2969-3.3242 9.7891-3.9219 9.8242-3.9258l3.5117-0.57422zm-36.277 0.58594c2.9062-1.3555 11.141-4.8594 18.656-4.8594h0.29297c3.0078 0.039063 5.3477 0.47266 6.9609 1.2617 0.13281 0.074218 0.26562 0.14453 0.39844 0.21484 1.4219 0.8125 2.1719 1.9492 2.1719 3.3789 0 1.6797-1.9922 4.8555-9.5234 4.8555-7.7578 0.003907-16.039-3.5-18.957-4.8516z"/>
  <path d="m101.86 63.707-24.883-0.074219c-0.16406 0-0.29688 0.13281-0.29688 0.29688 0 0.16406 0.13281 0.29687 0.29688 0.29687l24.883 0.074219c0.16406 0 0.29688-0.13281 0.29688-0.29688 0-0.16406-0.13281-0.29688-0.29688-0.29688z"/>
  <path d="m89.266 47.277c2.125-2.125 3.5039-4.1797 4.1328-6.125h0.003906c0.019531-0.066406 0.046875-0.15625 0.082031-0.26172 2.1016-6.8008 4.1484-9.6914 4.168-9.7188l2.0781-2.8906-2.9062 2.0586c-0.027344 0.019531-2.6719 1.8633-8.8789 3.7891-0.625 0.16016-1.082 0.31641-1.2266 0.36719l0.003906 0.019531c-1.6445 0.62109-3.625 1.8906-6 4.207-6.9023 6.7344-10.516 17.992-10.664 18.465l-0.34375 1.0898 1.0898-0.34375c0.46875-0.14453 11.492-3.6836 18.461-10.656zm-7.7109-7.6992c2.1758-2.1211 4.1523-3.4727 5.8633-4.0469 0.09375-0.027344 0.1875-0.054688 0.27734-0.082031 0.51172-0.14844 1.0039-0.23438 1.4648-0.23438 0.99609 0 1.8594 0.35156 2.5664 1.0586 0.48828 0.48437 1 1.5859 0.85156 3.0977-0.20703 2.1172-1.6445 4.5625-4.1523 7.0703-5.4844 5.4844-13.816 8.8672-16.84 9.9688 1.1172-3.0547 4.5352-11.531 9.9688-16.832z"/>
  <path d="m90.98 37.023c-0.11328-0.11719-0.30469-0.11719-0.41797 0l-17.652 17.543c-0.11719 0.11328-0.11719 0.30469-0.003906 0.41797 0.058594 0.058594 0.13281 0.085937 0.21094 0.085937 0.074218 0 0.15234-0.03125 0.20703-0.085937l17.648-17.543c0.125-0.11328 0.125-0.30078 0.007813-0.41797z"/>
 </g>
</svg>
